#!OML:ASF F:\VICON\USERDATA\INSTALL\rory3\rory3.ASF
:FULLY-SPECIFIED
:DEGREES
5077
root 1.63076 17.6686 -4.47183 -1631.79 55.435 529.221
lowerback 10.9678 -0.159744 -5.64794
upperback 1.04836 -0.829964 -0.0634122
thorax -4.97533 -0.262765 3.24041
lowerneck -18.8067 -6.17531 -10.9792
upperneck 26.8345 -7.37867 8.66228
head 12.8504 -3.07672 4.00635
rclavicle -7.88678e-014 -1.07344e-014
rhumerus -38.1624 -10.5983 -80.0358
rradius 28.1518
rwrist 6.66557
rhand -16.3941 7.90583
rfingers 7.12502
rthumb 9.81999 -21.8452
lclavicle -7.88678e-014 -1.07344e-014
lhumerus -28.1833 -3.37574 83.8384
lradius 37.7726
lwrist -3.54396
lhand -16.918 24.7284
lfingers 7.12502
lthumb 9.31444 54.5026
rfemur -24.2679 -3.81438 17.1703
rtibia 23.3597
rfoot -3.89769 -7.95783
rtoes -4.81194
lfemur 18.6978 -2.04059 -30.1034
ltibia 0
lfoot -6.64062 -5.39827
ltoes -6.06684
5078
root 1.74472 17.6673 -4.53232 -1631.56 55.5973 529.469
lowerback 10.8943 -0.0894998 -5.46909
upperback 0.999565 -0.715051 -0.0666673
thorax -4.99922 -0.209494 3.11854
lowerneck -18.7052 -6.19899 -10.8018
upperneck 26.8526 -7.46326 8.61588
head 12.8363 -3.10124 3.945
rclavicle -3.67255e-014 1.59028e-014
rhumerus -38.1917 -11.0173 -79.9147
rradius 27.9421
rwrist 7.22691
rhand -16.327 7.95314
rfingers 7.12502
rthumb 9.88473 -21.7948
lclavicle -3.67255e-014 1.59028e-014
lhumerus -28.1816 -3.47715 83.7664
lradius 37.8892
lwrist -3.67111
lhand -16.7542 24.6725
lfingers 7.12502
lthumb 9.4725 54.4396
rfemur -24.3073 -4.71501 17.8688
rtibia 23.7534
rfoot -3.01545 -6.85326
rtoes -6.42061
lfemur 19.1335 -2.2266 -29.9166
ltibia 0
lfoot -6.3506 -5.36392
ltoes -4.99006
5079
root 1.85878 17.6882 -4.59399 -1631.54 55.7656 529.55
lowerback 10.961 -0.0602211 -5.40416
upperback 0.950892 -0.674835 -0.0463916
thorax -5.09216 -0.188018 3.09852
lowerneck -18.8395 -6.18287 -10.7029
upperneck 27.0544 -7.44121 8.5426
head 12.9355 -3.08419 3.90829
rclavicle 4.97956e-014 -5.96354e-015
rhumerus -38.2272 -10.6716 -80.1257
rradius 27.9431
rwrist 6.96553
rhand -16.6411 7.66836
rfingers 7.12502
rthumb 9.58161 -22.0938
lclavicle 4.97956e-014 -5.96354e-015
lhumerus -28.2511 -3.36315 83.7033
lradius 37.9764
lwrist -3.70131
lhand -16.6865 24.6323
lfingers 7.12502
lthumb 9.53786 54.3965
rfemur -24.0371 -4.70335 18.039
rtibia 24.4106
rfoot -2.98912 -6.00828
rtoes 3.17175
lfemur 19.6192 -2.3687 -29.8535
ltibia -4.77083e-014
lfoot -6.21426 -5.33958
ltoes -6.60375
5080
root 1.97753 17.6964 -4.65266 -1631.69 55.8564 529.405
lowerback 11.1202 -0.0291032 -5.61162
upperback 0.791634 -0.674492 0.0444661
thorax -5.34625 -0.173742 3.31462
lowerneck -18.8412 -6.16547 -10.834
upperneck 27.3397 -7.34096 8.43823
head 13.0428 -3.06173 3.91712
rclavicle -5.43179e-014 9.14409e-015
rhumerus -38.4275 -10.1314 -80.1971
rradius 27.9772
rwrist 6.45885
rhand -16.7785 7.56871
rfingers 7.12502
rthumb 9.44908 -22.1995
lclavicle -5.43179e-014 9.14409e-015
lhumerus -28.5867 -3.04172 83.7999
lradius 38.0873
lwrist -3.788
lhand -16.8388 24.7455
lfingers 7.12502
lthumb 9.39085 54.5163
rfemur -23.8733 -4.67956 18.0943
rtibia 25.1072
rfoot -2.58324 -5.35063
rtoes 11.9613
lfemur 20.0894 -2.5632 -29.9328
ltibia -2.22639e-014
lfoot -6.03631 -5.32839
ltoes -8.40437
5081
root 2.09887 17.699 -4.71339 -1631.69 55.9289 529.354
lowerback 10.8067 0.00756648 -5.53346
upperback 0.890155 -0.592393 0.0336461
thorax -5.0757 -0.144797 3.24212
lowerneck -18.9888 -6.24882 -10.9539
upperneck 27.4449 -7.39187 8.37176
head 13.1265 -3.10257 3.90288
rclavicle -8.05575e-014 2.06736e-014
rhumerus -38.2362 -10.4672 -80.0202
rradius 27.8355
rwrist 6.71822
rhand -16.49 7.83358
rfingers 7.12502
rthumb 9.72739 -21.9218
lclavicle -8.05575e-014 2.06736e-014
lhumerus -28.4992 -2.77782 83.8062
lradius 38.1594
lwrist -4.10457
lhand -16.9069 24.6419
lfingers 7.12502
lthumb 9.32522 54.4156
rfemur -23.8391 -4.85236 18.3
rtibia 25.7201
rfoot -1.81698 -4.93777
rtoes 17.0745
lfemur 20.4996 -2.79742 -29.965
ltibia 3.18055e-014
lfoot -5.76313 -5.28917
ltoes -10.0336
5082
root 2.21793 17.6977 -4.77471 -1631.75 55.9654 529.265
lowerback 10.495 0.0528304 -5.37915
upperback 1.04902 -0.49075 -0.0776133
thorax -4.74602 -0.109688 3.01896
lowerneck -19.1666 -6.35669 -10.9057
upperneck 27.4631 -7.54651 8.35242
head 13.187 -3.1654 3.85645
rclavicle 1.76421e-013 -2.38542e-015
rhumerus -37.9759 -11.135 -79.8817
rradius 27.6899
rwrist 7.42911
rhand -16.3179 8.19625
rfingers 7.12502
rthumb 9.89344 -21.5513
lclavicle 1.76421e-013 -2.38542e-015
lhumerus -28.2912 -2.722 83.7109
lradius 38.2324
lwrist -4.20213
lhand -16.9754 24.6655
lfingers 7.12502
lthumb 9.25904 54.4422
rfemur -23.76 -5.17701 18.582
rtibia 26.0368
rfoot -0.858561 -4.80189
rtoes 16.3769
lfemur 20.9354 -3.05152 -30.0437
ltibia 3.18055e-014
lfoot -5.36718 -5.2342
ltoes -11.8123
5083
root 2.33717 17.6987 -4.82955 -1631.78 56.0424 529.286
lowerback 10.8221 0.0690046 -5.585
upperback 0.782659 -0.523181 0.0766792
thorax -5.20381 -0.104882 3.30721
lowerneck -18.955 -6.30817 -11.0594
upperneck 27.6814 -7.43043 8.32576
head 13.2259 -3.13191 3.9044
rclavicle 8.78131e-014 -7.95139e-015
rhumerus -38.257 -11.1333 -79.618
rradius 27.5625
rwrist 7.93946
rhand -16.5655 8.31655
rfingers 7.12502
rthumb 9.65453 -21.4422
lclavicle 8.78131e-014 -7.95139e-015
lhumerus -28.902 -2.26026 83.8163
lradius 38.3833
lwrist -4.21562
lhand -17.2924 24.5652
lfingers 7.12502
lthumb 8.95322 54.3552
rfemur -23.5988 -5.24378 18.9068
rtibia 26.1702
rfoot -0.0663198 -5.19407
rtoes 14.0279
lfemur 21.4037 -3.28297 -30.0055
ltibia -2.8625e-014
lfoot -4.84739 -5.36245
ltoes -13.0067
5084
root 2.45849 17.7148 -4.88316 -1631.43 56.1613 529.764
lowerback 10.9473 0.0523913 -5.43882
upperback 0.686066 -0.533751 0.237402
thorax -5.37476 -0.106601 3.39784
lowerneck -18.9078 -6.23336 -11.1672
upperneck 27.796 -7.30942 8.39564
head 13.2574 -3.07902 3.97826
rclavicle -3.61043e-014 9.54166e-015
rhumerus -38.2221 -11.2412 -79.4824
rradius 27.3642
rwrist 8.21246
rhand -16.6606 8.20191
rfingers 7.12502
rthumb 9.56285 -21.5611
lclavicle -3.61043e-014 9.54166e-015
lhumerus -29.2788 -1.92498 83.8589
lradius 38.4913
lwrist -4.26402
lhand -17.4453 24.558
lfingers 7.12502
lthumb 8.80568 54.3543
rfemur -23.2989 -4.8462 19.3138
rtibia 26.2456
rfoot 0.342057 -5.97824
rtoes 13.3637
lfemur 21.8766 -3.53932 -29.6589
ltibia 1.27222e-014
lfoot -4.09511 -5.57727
ltoes -12.9875
5085
root 2.57771 17.7356 -4.94562 -1631.14 56.2412 530.205
lowerback 10.9621 0.0200946 -5.12231
upperback 0.684316 -0.535002 0.32302
thorax -5.38655 -0.114042 3.30963
lowerneck -18.9451 -6.20564 -11.1293
upperneck 27.8707 -7.25589 8.32269
head 13.2845 -3.0593 3.95438
rclavicle 1.10574e-014 -1.19271e-014
rhumerus -38.1152 -11.1049 -79.5077
rradius 27.2541
rwrist 8.0167
rhand -16.5456 8.18356
rfingers 7.12502
rthumb 9.67375 -21.5743
lclavicle 1.10574e-014 -1.19271e-014
lhumerus -29.5129 -1.65029 83.8844
lradius 38.4546
lwrist -4.21848
lhand -17.5536 24.5548
lfingers 7.12502
lthumb 8.70117 54.3555
rfemur -22.8286 -4.37553 19.5592
rtibia 26.3035
rfoot 0.317234 -6.11013
rtoes 11.4843
lfemur 21.4263 -3.81041 -29.3962
ltibia 1.90684
lfoot -4.18421 -5.51647
ltoes -13.6418
5086
root 2.69636 17.7481 -5.01512 -1631.02 56.4377 530.467
lowerback 11.0236 0.0186067 -4.83535
upperback 0.653327 -0.50366 0.386051
thorax -5.45837 -0.103003 3.21003
lowerneck -18.9866 -6.1965 -11.0215
upperneck 28.0174 -7.21008 8.11393
head 13.3342 -3.05225 3.86475
rclavicle -3.07619e-014 7.95139e-015
rhumerus -38.0794 -10.8925 -79.5769
rradius 27.186
rwrist 7.80275
rhand -16.6168 8.08525
rfingers 7.12502
rthumb 9.60506 -21.6758
lclavicle -3.07619e-014 7.95139e-015
lhumerus -29.8407 -1.21543 83.904
lradius 38.382
lwrist -4.03431
lhand -17.6876 24.3939
lfingers 7.12502
lthumb 8.57184 54.1999
rfemur -22.2614 -3.9775 19.7321
rtibia 26.3847
rfoot -0.0475005 -5.6988
rtoes 10.3757
lfemur 19.6779 -3.93211 -29.2542
ltibia 6.46222
lfoot -5.48154 -5.26723
ltoes -14.5998
